<svg width="22" height="22" viewBox="0 0 22 22" fill="none" xmlns="http://www.w3.org/2000/svg">
<path d="M2.44444 22C1.77222 22 1.19656 21.7609 0.717444 21.2826C0.239148 20.8034 0 20.2278 0 19.5556V2.44444C0 1.77222 0.239148 1.19656 0.717444 0.717444C1.19656 0.239148 1.77222 0 2.44444 0H9.77778C10.1241 0 10.4146 0.116926 10.6492 0.350778C10.8831 0.585444 11 0.875926 11 1.22222C11 1.56852 10.8831 1.85859 10.6492 2.09244C10.4146 2.32711 10.1241 2.44444 9.77778 2.44444H2.44444V19.5556H19.5556V12.2222C19.5556 11.8759 19.6729 11.5854 19.9076 11.3508C20.1414 11.1169 20.4315 11 20.7778 11C21.1241 11 21.4141 11.1169 21.648 11.3508C21.8827 11.5854 22 11.8759 22 12.2222V19.5556C22 20.2278 21.7609 20.8034 21.2826 21.2826C20.8034 21.7609 20.2278 22 19.5556 22H2.44444ZM7.33333 14.6667C7.10926 14.4426 6.99722 14.1574 6.99722 13.8111C6.99722 13.4648 7.10926 13.1796 7.33333 12.9556L17.8444 2.44444H14.6667C14.3204 2.44444 14.0303 2.32711 13.7964 2.09244C13.5618 1.85859 13.4444 1.56852 13.4444 1.22222C13.4444 0.875926 13.5618 0.585444 13.7964 0.350778C14.0303 0.116926 14.3204 0 14.6667 0H20.7778C21.1241 0 21.4141 0.116926 21.648 0.350778C21.8827 0.585444 22 0.875926 22 1.22222V7.33333C22 7.67963 21.8827 7.9697 21.648 8.20356C21.4141 8.43822 21.1241 8.55556 20.7778 8.55556C20.4315 8.55556 20.1414 8.43822 19.9076 8.20356C19.6729 7.9697 19.5556 7.67963 19.5556 7.33333V4.15556L9.01389 14.6972C8.78981 14.9213 8.51481 15.0333 8.18889 15.0333C7.86296 15.0333 7.57778 14.9111 7.33333 14.6667Z" fill="black"></path>
</svg>